<?xml version="1.0" encoding="utf-8"?>
<!-- Generator: Adobe Illustrator 23.0.1, SVG Export Plug-In . SVG Version: 6.00 Build 0)  -->
<svg version="1.1" id="Layer_1" xmlns="http://www.w3.org/2000/svg" xmlns:xlink="http://www.w3.org/1999/xlink" x="0px" y="0px"
	 viewBox="0 0 50 50" enable-background="new 0 0 50 50" xml:space="preserve">
<g>
	<path fill="none" d="M12.64,20.1c-0.81,0-1.53,0.31-2.14,0.94c-0.61,0.63-0.92,1.35-0.92,2.16c0,0.86,0.29,1.57,0.87,2.15
		c0.58,0.57,1.3,0.86,2.16,0.86c0.57,0,1.12-0.13,1.64-0.4c0.03-0.02,0.51-0.34,1.25-0.83v-1.32C15.51,21.28,14.56,20.1,12.64,20.1z
		"/>
	<path fill="#EC2227" d="M45.77,15.2c-1.58-1.59-3.39-2.6-5.43-3.03l-0.55,8.68c0.07,0.06,0.13,0.12,0.19,0.18
		c0.57,0.59,0.86,1.33,0.86,2.2c0,0.85-0.3,1.57-0.91,2.16c-0.61,0.6-1.35,0.89-2.22,0.89c-2.05,0-3.07-1.42-3.07-4.28v-0.36V12.3
		V4.45h-8.04v12.58l0.49,9.19c0.42,1.56,1.11,2.93,2.09,4.1c0.99,1.19,2.25,2.14,3.77,2.84c1.53,0.7,3.09,1.05,4.7,1.05
		c3.19,0,5.89-1.07,8.08-3.22C47.9,28.84,49,26.2,49,23.06C49,20,47.92,17.37,45.77,15.2z"/>
	
		<linearGradient id="SVGID_1_" gradientUnits="userSpaceOnUse" x1="23.4061" y1="771.2317" x2="27.1475" y2="771.6249" gradientTransform="matrix(1 0 0 -1 0 794)">
		<stop  offset="0" style="stop-color:#4F1211"/>
		<stop  offset="0.546" style="stop-color:#EC2227"/>
		<stop  offset="1" style="stop-color:#4F1211"/>
	</linearGradient>
	<path fill="url(#SVGID_1_)" d="M25.18,18.22c-0.39,0.32-1.02,0.8-1.8,1.35l0.59,8.55c1.23-0.74,2.33-1.41,3.11-1.89l-0.49-9.19
		C26.04,17.49,25.56,17.9,25.18,18.22z"/>
	<path fill="none" d="M12.64,20.1c-0.81,0-1.53,0.31-2.14,0.94c-0.61,0.63-0.92,1.35-0.92,2.16c0,0.86,0.29,1.57,0.87,2.15
		c0.58,0.57,1.3,0.86,2.16,0.86c0.57,0,1.12-0.13,1.64-0.4c0.03-0.02,0.51-0.34,1.25-0.83v-1.32C15.51,21.28,14.56,20.1,12.64,20.1z
		"/>
	
		<linearGradient id="SVGID_2_" gradientUnits="userSpaceOnUse" x1="34.579" y1="777.2492" x2="39.2823" y2="777.1526" gradientTransform="matrix(1 0 0 -1 0 794)">
		<stop  offset="0" style="stop-color:#4F1211"/>
		<stop  offset="1" style="stop-color:#EC2227"/>
	</linearGradient>
	<path fill="url(#SVGID_2_)" d="M35.85,20.91c0.76-0.52,1.43-0.77,2.02-0.77c0.74,0,1.38,0.24,1.92,0.71l0.55-8.68
		c-0.75-0.16-1.53-0.24-2.34-0.24c-0.35,0-0.82,0.02-1.41,0.07c0,0,0,0-0.01,0c-0.2,0.01-0.39,0.03-0.59,0.05
		c-0.05,0-0.1,0.01-0.15,0.01v0.01c-0.41,0.05-0.82,0.13-1.23,0.24v9.34C35.36,21.21,35.85,20.91,35.85,20.91z"/>
	
		<linearGradient id="SVGID_3_" gradientUnits="userSpaceOnUse" x1="15.8016" y1="764.0704" x2="9.7451" y2="764.9724" gradientTransform="matrix(1 0 0 -1 0 794)">
		<stop  offset="0" style="stop-color:#4F1211"/>
		<stop  offset="1" style="stop-color:#EC2227"/>
	</linearGradient>
	<path fill="url(#SVGID_3_)" d="M14.26,25.8c-0.53,0.27-1.07,0.4-1.64,0.4c-0.86,0-1.58-0.29-2.16-0.86
		c-0.42-0.42-0.69-0.91-0.81-1.49L8.12,33.86c0.83,0.24,1.72,0.36,2.65,0.36c1.12,0,2.28-0.23,3.5-0.68
		c0.23-0.07,0.66-0.26,1.2-0.54l0.04-8.05C14.77,25.46,14.3,25.77,14.26,25.8z"/>
	<path fill="#EC2227" d="M23.38,19.57c-0.38-1.41-0.96-2.61-1.72-3.58c-0.92-1.19-2.19-2.14-3.8-2.85c-1.61-0.71-3.3-1.06-5.06-1.06
		c-3.32,0-6.11,1.11-8.39,3.32C2.14,17.61,1,20.33,1,23.56c0,2.98,0.95,5.51,2.84,7.57c1.24,1.36,2.67,2.27,4.28,2.73l1.54-10.01
		c-0.04-0.21-0.07-0.43-0.07-0.66c0-0.81,0.31-1.53,0.92-2.16c0.61-0.63,1.32-0.94,2.14-0.94c1.91,0,2.87,1.18,2.87,3.55v1.32
		l-0.04,8.05c-0.11,1.44-0.51,2.58-1.2,3.42c-0.83,1-2,1.5-3.53,1.5c-1.13,0-2.25-0.3-3.35-0.91v7.69c1.7,0.56,3.11,0.84,4.23,0.84
		c3.66,0,6.63-1.25,8.92-3.76c2.28-2.51,3.42-5.78,3.42-9.8v-3.87L23.38,19.57z"/>
</g>
</svg>
